<svg width="20" height="20" viewBox="0 0 20 20" fill="none" xmlns="http://www.w3.org/2000/svg">
<g clip-path="url(#clip0_607_8074)">
<path d="M1.66602 15.0003C1.66602 13.7167 1.66602 13.0747 1.95496 12.6032C2.11663 12.3394 2.33846 12.1176 2.60229 11.9559C3.0738 11.667 3.71565 11.667 4.99935 11.667C6.28305 11.667 6.9249 11.667 7.39641 11.9559C7.66024 12.1176 7.88207 12.3394 8.04374 12.6032C8.33268 13.0747 8.33268 13.7167 8.33268 15.0003C8.33268 16.284 8.33268 16.9259 8.04374 17.3974C7.88207 17.6612 7.66024 17.8831 7.39641 18.0447C6.9249 18.3337 6.28305 18.3337 4.99935 18.3337C3.71565 18.3337 3.0738 18.3337 2.60229 18.0447C2.33846 17.8831 2.11663 17.6612 1.95496 17.3974C1.66602 16.9259 1.66602 16.284 1.66602 15.0003Z" stroke="#101828" stroke-width="1.5"/>
<path d="M14.9993 18.3337C16.8403 18.3337 18.3327 16.8413 18.3327 15.0003C18.3327 13.1594 16.8403 11.667 14.9993 11.667C13.1584 11.667 11.666 13.1594 11.666 15.0003C11.666 16.8413 13.1584 18.3337 14.9993 18.3337Z" stroke="#101828" stroke-width="1.5"/>
<path d="M1.66602 5.00033C1.66602 3.71663 1.66602 3.07478 1.95496 2.60327C2.11663 2.33943 2.33846 2.11761 2.60229 1.95593C3.0738 1.66699 3.71565 1.66699 4.99935 1.66699C6.28305 1.66699 6.9249 1.66699 7.39641 1.95593C7.66024 2.11761 7.88207 2.33943 8.04374 2.60327C8.33268 3.07478 8.33268 3.71663 8.33268 5.00033C8.33268 6.28403 8.33268 6.92588 8.04374 7.39738C7.88207 7.66122 7.66024 7.88304 7.39641 8.04472C6.9249 8.33366 6.28305 8.33366 4.99935 8.33366C3.71565 8.33366 3.0738 8.33366 2.60229 8.04472C2.33846 7.88304 2.11663 7.66122 1.95496 7.39738C1.66602 6.92588 1.66602 6.28403 1.66602 5.00033Z" stroke="#101828" stroke-width="1.5"/>
<path d="M11.666 5.00033C11.666 3.71663 11.666 3.07478 11.9549 2.60327C12.1166 2.33943 12.3384 2.11761 12.6023 1.95593C13.0738 1.66699 13.7157 1.66699 14.9993 1.66699C16.283 1.66699 16.9249 1.66699 17.3964 1.95593C17.6603 2.11761 17.8821 2.33943 18.0438 2.60327C18.3327 3.07478 18.3327 3.71663 18.3327 5.00033C18.3327 6.28403 18.3327 6.92588 18.0438 7.39738C17.8821 7.66122 17.6603 7.88304 17.3964 8.04472C16.9249 8.33366 16.283 8.33366 14.9993 8.33366C13.7157 8.33366 13.0738 8.33366 12.6023 8.04472C12.3384 7.88304 12.1166 7.66122 11.9549 7.39738C11.666 6.92588 11.666 6.28403 11.666 5.00033Z" stroke="#101828" stroke-width="1.5"/>
</g>
<defs>
<clipPath id="clip0_607_8074">
<rect width="20" height="20" fill="white"/>
</clipPath>
</defs>
</svg>
