<svg width="20" height="20" viewBox="0 0 20 20" fill="none" xmlns="http://www.w3.org/2000/svg">
<g clip-path="url(#clip0_607_8015)">
<path d="M3.14736 9.95233C2.35735 8.57474 1.97589 7.44989 1.74588 6.30967C1.4057 4.62331 2.18419 2.976 3.47383 1.92489C4.01889 1.48064 4.64371 1.63243 4.96601 2.21066L5.69366 3.51609C6.27042 4.5508 6.5588 5.06815 6.5016 5.61665C6.44441 6.16515 6.05549 6.61188 5.27766 7.50533L3.14736 9.95233ZM3.14736 9.95233C4.74644 12.7406 7.25588 15.2514 10.0473 16.8523M10.0473 16.8523C11.4249 17.6423 12.5498 18.0238 13.69 18.2538C15.3763 18.594 17.0237 17.8155 18.0748 16.5258C18.519 15.9808 18.3673 15.356 17.789 15.0337L16.4836 14.306C15.4488 13.7292 14.9315 13.4409 14.383 13.4981C13.8345 13.5552 13.3878 13.9442 12.4943 14.722L10.0473 16.8523Z" stroke="#101828" stroke-width="1.5" stroke-linejoin="round"/>
</g>
<defs>
<clipPath id="clip0_607_8015">
<rect width="20" height="20" fill="white"/>
</clipPath>
</defs>
</svg>
