<svg width="20" height="20" viewBox="0 0 20 20" fill="none" xmlns="http://www.w3.org/2000/svg">
<g clip-path="url(#clip0_607_8041)">
<path d="M14.166 5C16.1207 5 16.6813 5 17.3546 5.51662C17.5279 5.64962 17.6831 5.80477 17.8161 5.9781C18.3327 6.65137 18.3327 7.62868 18.3327 9.58333V13.3333C18.3327 15.6903 18.3327 16.8688 17.6004 17.6011C16.8682 18.3333 15.6897 18.3333 13.3327 18.3333H6.66602C4.30899 18.3333 3.13048 18.3333 2.39825 17.6011C1.66602 16.8688 1.66602 15.6903 1.66602 13.3333V9.58333C1.66602 7.62868 1.66602 6.65137 2.18263 5.9781C2.31563 5.80477 2.47078 5.64962 2.64412 5.51662C3.31738 5 3.87803 5 5.83268 5" stroke="#101828" stroke-width="1.5" stroke-linecap="round"/>
<path d="M14.1673 5.83366L13.4292 3.98818C13.1107 3.19196 12.8335 2.28874 12.0145 1.88328C11.5777 1.66699 11.052 1.66699 10.0007 1.66699C8.94932 1.66699 8.42365 1.66699 7.98678 1.88328C7.16782 2.28874 6.89066 3.19196 6.57218 3.98818L5.83398 5.83366" stroke="#101828" stroke-width="1.5" stroke-linecap="round" stroke-linejoin="round"/>
<path d="M12.9173 11.6667C12.9173 13.2775 11.6115 14.5833 10.0007 14.5833C8.38982 14.5833 7.08398 13.2775 7.08398 11.6667C7.08398 10.0558 8.38982 8.75 10.0007 8.75C11.6115 8.75 12.9173 10.0558 12.9173 11.6667Z" stroke="#101828" stroke-width="1.5"/>
<path d="M10 5H10.0075" stroke="#101828" stroke-width="2" stroke-linecap="round" stroke-linejoin="round"/>
</g>
<defs>
<clipPath id="clip0_607_8041">
<rect width="20" height="20" fill="white"/>
</clipPath>
</defs>
</svg>
