<svg width="20" height="20" viewBox="0 0 20 20" fill="none" xmlns="http://www.w3.org/2000/svg">
<path d="M15.5128 16.667H15.9213C16.8794 16.667 17.6416 16.2304 18.3259 15.62C20.0643 14.0692 15.9778 12.5003 14.5827 12.5003M12.916 4.2243C13.1053 4.18677 13.3018 4.16699 13.5033 4.16699C15.0199 4.16699 16.2493 5.28628 16.2493 6.66699C16.2493 8.0477 15.0199 9.16699 13.5033 9.16699C13.3018 9.16699 13.1053 9.14724 12.916 9.10966" stroke="#101828" stroke-width="1.5" stroke-linecap="round"/>
<path d="M3.73443 13.426C2.75195 13.9525 0.175949 15.0276 1.7449 16.3728C2.51133 17.03 3.36493 17.5 4.4381 17.5H10.5619C11.6351 17.5 12.4887 17.03 13.2551 16.3728C14.8241 15.0276 12.2481 13.9525 11.2656 13.426C8.96167 12.1913 6.03833 12.1913 3.73443 13.426Z" stroke="#101828" stroke-width="1.5"/>
<path d="M10.8327 6.25033C10.8327 8.09128 9.34027 9.58366 7.49935 9.58366C5.6584 9.58366 4.16602 8.09128 4.16602 6.25033C4.16602 4.40938 5.6584 2.91699 7.49935 2.91699C9.34027 2.91699 10.8327 4.40938 10.8327 6.25033Z" stroke="#101828" stroke-width="1.5"/>
</svg>
