<svg width="20" height="20" viewBox="0 0 20 20" fill="none" xmlns="http://www.w3.org/2000/svg">
<g clip-path="url(#clip0_607_472)">
<path d="M16.666 14.3222C15.7018 15.0003 14.3416 15.0003 11.6212 15.0003H8.30278C5.58235 15.0003 4.22213 15.0003 3.25793 14.3222C2.90121 14.0712 2.59093 13.7596 2.34116 13.4012C1.66602 12.4327 1.66602 11.0663 1.66602 8.33366C1.66602 5.60097 1.66602 4.23463 2.34116 3.26608C2.59093 2.90775 2.90121 2.59608 3.25793 2.34518C4.22213 1.66699 5.58235 1.66699 8.30278 1.66699" stroke="black" stroke-width="1.5" stroke-linecap="round"/>
<path d="M10 15V18.3333" stroke="black" stroke-width="1.5"/>
<path d="M6.66602 18.333H13.3327" stroke="black" stroke-width="1.5" stroke-linecap="round"/>
<path d="M15.0007 1.66699C16.572 1.66699 17.3577 1.66699 17.8458 2.15515C18.334 2.6433 18.334 3.42898 18.334 5.00033V8.33366C18.334 9.90499 18.334 10.6907 17.8458 11.1788C17.3577 11.667 16.572 11.667 15.0007 11.667H14.1673C12.596 11.667 11.8103 11.667 11.3222 11.1788C10.834 10.6907 10.834 9.90499 10.834 8.33366V5.00033C10.834 3.42898 10.834 2.6433 11.3222 2.15515C11.8103 1.66699 12.596 1.66699 14.1673 1.66699H15.0007Z" stroke="black" stroke-width="1.5" stroke-linecap="round"/>
<path d="M14.584 9.58301H14.5915" stroke="black" stroke-width="2" stroke-linecap="round" stroke-linejoin="round"/>
</g>
<defs>
<clipPath id="clip0_607_472">
<rect width="20" height="20" fill="white"/>
</clipPath>
</defs>
</svg>
