<svg width="20" height="20" viewBox="0 0 20 20" fill="none" xmlns="http://www.w3.org/2000/svg">
<path d="M5.83268 5.83333H13.9577C15.7133 5.83333 16.591 5.83333 17.2216 6.25466C17.4946 6.43706 17.7289 6.67143 17.9113 6.94441C18.3327 7.57497 18.3327 8.45275 18.3327 10.2083C18.3327 13.1343 18.3327 14.5973 17.6304 15.6483C17.3265 16.1032 16.9359 16.4938 16.4809 16.7978C15.4299 17.5 13.967 17.5 11.041 17.5H9.99935C6.07097 17.5 4.10679 17.5 2.88641 16.2796C1.66602 15.0592 1.66602 13.095 1.66602 9.16667V6.62023C1.66602 5.1065 1.66602 4.34963 1.98295 3.78172C2.20887 3.37689 2.54291 3.04285 2.94773 2.81693C3.51565 2.5 4.27252 2.5 5.78624 2.5C6.75603 2.5 7.24093 2.5 7.6654 2.65917C8.63452 3.0226 9.03418 3.90298 9.47152 4.77761L9.99935 5.83333" stroke="#101828" stroke-width="1.5" stroke-linecap="round"/>
</svg>
