<svg width="20" height="20" viewBox="0 0 20 20" fill="none" xmlns="http://www.w3.org/2000/svg">
<g clip-path="url(#clip0_607_8050)">
<path d="M5 14.9788C5.10725 16.0691 5.34963 16.803 5.89743 17.3508C6.87997 18.3333 8.46133 18.3333 11.6241 18.3333C14.7868 18.3333 16.3683 18.3333 17.3508 17.3508C18.3333 16.3683 18.3333 14.7868 18.3333 11.6241C18.3333 8.46133 18.3333 6.87997 17.3508 5.89743C16.803 5.34963 16.0691 5.10725 14.9788 5" stroke="#101828" stroke-width="1.5"/>
<path d="M1.66602 8.33366C1.66602 5.19096 1.66602 3.61962 2.64232 2.6433C3.61864 1.66699 5.18998 1.66699 8.33268 1.66699C11.4753 1.66699 13.0468 1.66699 14.023 2.6433C14.9993 3.61962 14.9993 5.19096 14.9993 8.33366C14.9993 11.4763 14.9993 13.0477 14.023 14.024C13.0468 15.0003 11.4753 15.0003 8.33268 15.0003C5.18998 15.0003 3.61864 15.0003 2.64232 14.024C1.66602 13.0477 1.66602 11.4763 1.66602 8.33366Z" stroke="#101828" stroke-width="1.5"/>
<path d="M1.66602 9.26577C2.18187 9.20019 2.70338 9.16786 3.22577 9.16894C5.43572 9.12811 7.59155 9.73061 9.3086 10.869C10.901 11.9249 12.0199 13.3779 12.4993 15.0004" stroke="#101828" stroke-width="1.5" stroke-linejoin="round"/>
<path d="M10.834 5.83301H10.8415" stroke="#101828" stroke-width="2" stroke-linecap="round" stroke-linejoin="round"/>
</g>
<defs>
<clipPath id="clip0_607_8050">
<rect width="20" height="20" fill="white"/>
</clipPath>
</defs>
</svg>
