<svg width="20" height="20" viewBox="0 0 20 20" fill="none" xmlns="http://www.w3.org/2000/svg">
<g clip-path="url(#clip0_607_8068)">
<path d="M13.8297 17.2494L11.7923 17.7888C9.90658 18.2881 8.96366 18.5377 8.22488 18.1288C7.48611 17.72 7.23996 16.8123 6.74765 14.997L5.52926 10.5043C5.03696 8.68899 4.79081 7.78137 5.22371 7.06232C5.65661 6.34328 6.59951 6.09366 8.48533 5.59441L11.8189 4.71186C13.7047 4.21261 14.6476 3.96298 15.3864 4.37182C16.1252 4.78067 16.3713 5.68833 16.8636 7.50364L18.0868 12.0142C18.2962 12.7862 18.4009 13.1722 18.2858 13.5351M13.8297 17.2494C14.4564 17.0835 14.4614 17.0808 14.9488 16.6627L17.2353 14.7007C17.859 14.1656 18.1708 13.898 18.2858 13.5351M13.8297 17.2494C13.8297 17.2494 14.3197 13.4218 15.4167 12.917C16.661 12.3443 18.2858 13.5351 18.2858 13.5351" stroke="black" stroke-width="1.5" stroke-linejoin="round"/>
<path d="M14.166 4.16798C14.1123 3.27349 13.9638 2.71041 13.5397 2.30668C12.8901 1.68827 11.8477 1.6852 9.76268 1.67903L6.07702 1.66814C3.99209 1.66198 2.94962 1.6589 2.30381 2.27347C1.65799 2.88805 1.66103 3.88026 1.66711 5.8647L1.68216 10.7759C1.68825 12.7604 1.69129 13.7526 2.34088 14.371C2.99047 14.9894 4.03294 14.9925 6.11788 14.9987L6.68523 15.0003" stroke="black" stroke-width="1.5"/>
</g>
<defs>
<clipPath id="clip0_607_8068">
<rect width="20" height="20" fill="white"/>
</clipPath>
</defs>
</svg>
