<svg width="160" height="32" viewBox="0 0 160 32" fill="none" xmlns="http://www.w3.org/2000/svg">
<path fill-rule="evenodd" clip-rule="evenodd" d="M46.4406 11.2001C46.4776 11.1988 46.5092 11.1846 46.5351 11.1574L46.7178 10.9683C43.8704 7.98734 40.6345 5.32445 37.0472 3.29668C33.7343 1.42375 30.0933 0.172974 26.3428 0.0172056C23.6527 -0.0940573 20.9651 0.334304 18.2799 1.30229C16.7055 1.87035 15.1853 2.57687 13.7191 3.42185C10.3737 5.35041 7.33905 7.81674 4.65576 10.589C4.65577 10.5891 4.65578 10.5891 4.65579 10.5891C2.99241 12.2549 1.47893 14.0487 0.11534 15.9705C0.109091 15.9789 0.105641 15.9891 0.105475 15.9996C0.105309 16.01 0.108435 16.0203 0.114414 16.0289C0.665165 16.8183 1.24837 17.5841 1.86402 18.3265C3.98667 20.8843 6.31794 23.1865 8.85783 25.2331C12.0195 27.782 15.5484 29.8747 19.4306 31.0717C21.4704 31.7009 23.5445 32.0103 25.653 31.9998C32.6876 31.9645 39.202 28.0091 44.2765 23.4029C46.7663 21.143 48.9653 18.6992 50.8735 16.0716C50.8867 16.0532 50.8939 16.0312 50.894 16.0088C50.8942 15.9863 50.8874 15.9645 50.8744 15.9464C49.6153 14.1835 48.2298 12.5241 46.7178 10.9683L46.5352 11.1574C46.5092 11.1846 46.4777 11.1989 46.4406 11.2001C46.3843 11.2026 46.338 11.2273 46.3015 11.2743C46.2917 11.2872 46.279 11.2977 46.2644 11.305C46.2498 11.3122 46.2336 11.316 46.2171 11.316C46.1825 11.316 46.1532 11.3287 46.1291 11.354C46.032 11.4554 45.9146 11.5135 45.7767 11.5283C45.7195 11.5342 45.6701 11.5489 45.6215 11.5633C45.5551 11.5829 45.4904 11.6021 45.4096 11.5979C45.3867 11.5972 45.3654 11.6031 45.3456 11.6155L45.2964 11.647C45.268 11.6649 45.2396 11.6655 45.2111 11.6489M4.67065 10.6105C4.70431 10.6495 4.74633 10.6389 4.79673 10.5789C4.81483 10.5573 4.83715 10.5396 4.86232 10.5269C4.8875 10.5143 4.915 10.5069 4.94313 10.5052C4.97126 10.5036 4.99944 10.5077 5.02592 10.5173C5.05241 10.527 5.07664 10.5419 5.09714 10.5613C5.15771 10.6175 5.24796 10.6561 5.36788 10.6772C5.70785 10.7353 6.03576 10.773 6.35163 10.7903C6.36832 10.7909 6.38192 10.785 6.39242 10.7727C6.39861 10.7652 6.40603 10.7618 6.41468 10.7625C6.59888 10.7668 6.76485 10.7946 6.91258 10.8459C6.94472 10.8564 6.97748 10.8598 7.01086 10.8561C7.04221 10.8518 7.06837 10.8602 7.08932 10.8814C7.06836 10.8602 7.0422 10.8517 7.01083 10.8561C6.97745 10.8598 6.94469 10.8564 6.91254 10.8459C6.76481 10.7946 6.59885 10.7668 6.41464 10.7624C6.40599 10.7618 6.39857 10.7652 6.39239 10.7726C6.38188 10.785 6.36828 10.7909 6.35159 10.7902C6.03573 10.7729 5.70781 10.7352 5.36784 10.6771C5.24793 10.6561 5.15768 10.6175 5.0971 10.5612C5.07661 10.5419 5.05237 10.5269 5.02589 10.5173C4.9994 10.5077 4.97123 10.5035 4.9431 10.5052C4.91496 10.5068 4.88746 10.5142 4.86229 10.5269C4.83711 10.5396 4.81479 10.5572 4.79669 10.5788C4.74632 10.6389 4.7043 10.6494 4.67065 10.6105ZM46.4406 11.2001C46.3843 11.2025 46.338 11.2273 46.3015 11.2742L46.4406 11.2001ZM46.3015 11.2742C46.2917 11.2872 46.279 11.2977 46.2644 11.3049L46.3015 11.2742ZM46.2644 11.3049C46.2497 11.3122 46.2336 11.3159 46.2171 11.316L46.2644 11.3049ZM46.2171 11.316C46.1825 11.316 46.1531 11.3286 46.129 11.354L46.2171 11.316ZM46.129 11.354C46.032 11.4553 45.9145 11.5134 45.7767 11.5283L46.129 11.354ZM45.7767 11.5283C45.7195 11.5342 45.67 11.5488 45.6215 11.5632L45.7767 11.5283ZM45.6215 11.5632C45.5551 11.5829 45.4903 11.6021 45.4095 11.5978L45.6215 11.5632ZM45.4095 11.5978C45.3867 11.5972 45.3653 11.6031 45.3456 11.6154L45.4095 11.5978ZM45.3456 11.6154L45.2964 11.647L45.3456 11.6154ZM45.2964 11.647C45.268 11.6649 45.2395 11.6655 45.2111 11.6488L45.2964 11.647ZM45.1443 11.6562C45.1627 11.64 45.1821 11.6361 45.2024 11.6445C45.1821 11.6361 45.1628 11.6401 45.1444 11.6563C45.1209 11.6767 45.0934 11.6881 45.0619 11.6906C45.0447 11.6917 45.0291 11.6916 45.0141 11.6914C44.9803 11.691 44.9495 11.6907 44.9117 11.7054C44.7034 11.7876 44.4932 11.8553 44.2812 11.9085C44.2447 11.9177 44.216 11.9378 44.1949 11.9687C44.1628 12.0151 44.1205 12.0516 44.0679 12.0781C44.0675 12.0784 44.0671 12.0785 44.0667 12.0786C44.0663 12.0787 44.0658 12.0788 44.0653 12.0788C44.0643 12.0787 44.0634 12.0784 44.0626 12.0778C44.0622 12.0776 44.0618 12.0772 44.0614 12.0768C44.0618 12.0772 44.0621 12.0775 44.0626 12.0778C44.0634 12.0784 44.0643 12.0787 44.0652 12.0787C44.0662 12.0788 44.0671 12.0786 44.0679 12.0781C44.1204 12.0515 44.1628 12.0151 44.1949 11.9687C44.2159 11.9378 44.2447 11.9177 44.2811 11.9084C44.4931 11.8553 44.7033 11.7876 44.9116 11.7054C44.9495 11.6906 44.9803 11.691 45.0141 11.6913C45.0291 11.6915 45.0447 11.6917 45.0618 11.6905C45.0934 11.6881 45.1209 11.6766 45.1443 11.6562ZM43.9993 12.0113C44.0187 11.999 44.0334 11.9955 44.0433 12.0009C44.0334 11.9955 44.0187 11.999 43.9993 12.0114C43.9628 12.0343 43.9288 12.0714 43.8973 12.1227C45.0736 13.2878 46.1896 14.5102 47.2454 15.7897C47.3214 15.8818 47.3607 15.9306 47.3632 15.9362C47.3934 16.0073 47.3836 16.0722 47.3335 16.1309C45.714 18.023 44.2722 19.5603 43.0081 20.7427C41.4616 22.1885 39.8993 23.4706 38.3212 24.5887C38.26 24.632 38.2495 24.6221 38.2897 24.5591C38.7087 23.9039 39.0762 23.2443 39.3921 22.5804C40.213 20.8546 40.6895 19.0395 40.8218 17.135C40.8651 16.5107 40.8808 15.9832 40.8691 15.5523C40.8246 13.9514 40.5322 12.3999 39.992 10.8978C39.9653 10.9317 39.9541 10.9605 39.9586 10.9841C39.9541 10.9605 39.9652 10.9317 39.9919 10.8978C39.571 9.6535 39.0023 8.51059 38.2859 7.46904C38.2086 7.35716 38.2253 7.34047 38.336 7.41897C40.3004 8.8147 42.1542 10.3826 43.8973 12.1226C43.9288 12.0713 43.9628 12.0342 43.9993 12.0113ZM39.9971 11.0311C40.0033 11.0382 40.0097 11.0519 40.0157 11.0709C40.0234 11.0952 40.03 11.1272 40.0346 11.162C40.0395 11.1997 40.0247 11.2121 39.9901 11.1991C39.9745 11.1937 39.961 11.1843 39.9495 11.1708C39.961 11.1843 39.9746 11.1938 39.9901 11.1992C40.0247 11.2122 40.0396 11.1998 40.0346 11.1621C40.03 11.1272 40.0234 11.0953 40.0157 11.0709C40.0097 11.0519 40.0033 11.0382 39.9971 11.0311ZM39.8278 11.1018C39.8396 11.1025 39.8509 11.1045 39.8618 11.1077C39.8509 11.1045 39.8396 11.1026 39.8279 11.1018C39.7141 11.0944 39.6124 11.1306 39.5228 11.2103C39.5024 11.2282 39.4789 11.239 39.4524 11.2427L39.0796 11.291C39.0555 11.2941 39.032 11.2919 39.0092 11.2845C38.9881 11.2777 38.9668 11.278 38.9452 11.2854C38.9087 11.2978 38.8704 11.3046 38.8302 11.3058C38.7381 11.3077 38.6448 11.3145 38.5502 11.3262C38.489 11.3342 38.4272 11.3318 38.3648 11.3188C38.1651 11.278 37.9639 11.2601 37.7612 11.265C37.7562 11.2653 37.7526 11.2643 37.7503 11.2618C37.7526 11.2642 37.7562 11.2653 37.7611 11.265C37.9639 11.26 38.1651 11.2779 38.3647 11.3187C38.4272 11.3317 38.489 11.3342 38.5502 11.3262C38.6447 11.3144 38.7381 11.3076 38.8302 11.3058C38.8704 11.3045 38.9087 11.2977 38.9451 11.2854C38.9668 11.2779 38.9881 11.2776 39.0091 11.2844C39.032 11.2919 39.0555 11.294 39.0796 11.2909L39.4523 11.2427C39.4789 11.239 39.5024 11.2282 39.5228 11.2103C39.6124 11.1305 39.7141 11.0944 39.8278 11.1018ZM37.7108 11.1506C37.7074 11.1493 37.7038 11.1481 37.6999 11.1472L37.7 11.1472C37.7038 11.1482 37.7074 11.1493 37.7108 11.1506ZM37.6184 11.1278C38.2127 12.5927 38.5456 14.1393 38.5558 15.7164C38.5588 16.2239 38.5505 16.6297 38.5307 16.9338C38.4207 18.5985 37.992 20.1932 37.2447 21.7182C36.6266 22.9779 35.883 24.0568 35.0139 24.955C34.6226 25.3583 34.2007 25.7653 33.765 26.1195C31.9916 27.5616 29.9635 28.4842 27.6807 28.8872C23.6864 29.5919 19.4324 28.2892 16.5007 25.4686C14.4769 23.5234 13.1897 21.1458 12.6389 18.3358C12.5443 17.8542 12.4853 17.3282 12.4618 16.7577C12.4216 15.7909 12.4627 14.8866 12.5851 14.0447C12.388 13.952 12.2699 13.952 12.2309 14.0447C12.2238 14.062 12.2106 14.0762 12.1938 14.0847C12.177 14.0932 12.1576 14.0955 12.1392 14.0911C11.8944 14.0342 11.6465 13.9977 11.3955 13.9817C11.2954 13.9749 11.2015 13.986 11.1137 14.0151C11.0859 14.0243 11.0577 14.0249 11.0293 14.0169C10.8964 13.9805 10.7961 13.9887 10.6914 13.9972C10.6414 14.0013 10.5903 14.0055 10.5342 14.0049C10.5138 14.0045 10.4985 13.9981 10.4883 13.9858C10.4985 13.9981 10.5138 14.0044 10.5342 14.0048C10.5903 14.0054 10.6413 14.0013 10.6914 13.9972C10.796 13.9887 10.8963 13.9805 11.0293 14.0169C11.0577 14.0249 11.0858 14.0243 11.1136 14.015C11.2014 13.986 11.2954 13.9748 11.3955 13.9816C11.6465 13.9977 11.8943 14.0342 12.1391 14.091C12.1576 14.0954 12.1769 14.0932 12.1938 14.0847C12.2106 14.0762 12.2237 14.062 12.2309 14.0447C12.2699 13.952 12.3879 13.952 12.5851 14.0447C12.6753 13.3858 12.8376 12.6978 13.0719 11.9808C13.8223 9.68256 15.0962 7.74936 16.8938 6.18117C17.6862 5.4901 18.4548 4.94708 19.1997 4.5521C21.3613 3.40609 23.5726 2.8643 25.8337 2.92673C26.4055 2.9428 27.0413 3.01141 27.741 3.13257C30.6449 3.63696 33.2318 5.08152 35.2086 7.25857C36.252 8.40705 37.0552 9.69677 37.6183 11.1277L37.6184 11.1278ZM10.4648 13.9335C10.4634 13.9319 10.4617 13.9303 10.46 13.9288C10.4421 13.9133 10.4254 13.9152 10.4099 13.9343C10.4006 13.9461 10.3975 13.9597 10.4006 13.9751C10.403 13.9882 10.4017 13.9918 10.3966 13.986C10.4017 13.9918 10.4031 13.9882 10.4007 13.9752C10.3976 13.9597 10.4007 13.9461 10.4099 13.9344C10.4254 13.9152 10.4421 13.9134 10.46 13.9288C10.4618 13.9303 10.4634 13.9319 10.4648 13.9335ZM10.2801 13.9316C10.2801 13.9316 10.2801 13.9316 10.2801 13.9316C10.562 11.6433 11.4307 9.42356 12.6834 7.50057C12.7545 7.39178 12.7372 7.37508 12.6315 7.4505C11.2957 8.39994 9.99762 9.44519 8.73726 10.5863C8.46899 10.8292 8.20103 11.0727 7.93338 11.3169C7.93339 11.3169 7.93341 11.3169 7.93342 11.3169C6.40973 12.7708 4.96362 14.317 3.59509 15.9557C3.58651 15.9662 3.58183 15.9793 3.58183 15.993C3.58183 16.0067 3.58651 16.02 3.59509 16.0308C6.25335 19.262 9.24632 22.1326 12.663 24.5823C12.676 24.5921 12.6905 24.5992 12.7066 24.6036C12.7486 24.6153 12.7576 24.6033 12.7335 24.5674C11.1931 22.2433 10.3302 19.6694 10.1448 16.8458C10.122 16.5007 10.1352 16.1601 10.1486 15.8167C10.1553 15.6434 10.1621 15.4693 10.1642 15.2936C10.169 14.9021 10.2138 14.512 10.2587 14.1203C10.2659 14.0575 10.2731 13.9946 10.2801 13.9316ZM7.90557 11.1843C7.92631 11.1815 7.93975 11.1835 7.94587 11.1902C7.93973 11.1835 7.92631 11.1815 7.9056 11.1843C7.88999 11.1866 7.87626 11.1824 7.8644 11.1718C7.87625 11.1824 7.88997 11.1866 7.90557 11.1843ZM7.84388 11.1465C7.82375 11.123 7.80693 11.1288 7.79341 11.1639C7.7897 11.1732 7.78383 11.1816 7.7758 11.189C7.75045 11.2106 7.72449 11.2109 7.69791 11.1899C7.69623 11.1886 7.69462 11.1872 7.69306 11.1858C7.69461 11.1872 7.69621 11.1885 7.69788 11.1899C7.72446 11.2109 7.75042 11.2106 7.77576 11.1889C7.7838 11.1815 7.78967 11.1732 7.79338 11.1639C7.8069 11.1287 7.82373 11.1229 7.84388 11.1465ZM7.66108 11.0442C7.65309 11.0336 7.63568 11.0402 7.60886 11.0638C7.5693 11.0984 7.53036 11.1024 7.49204 11.0758C7.47535 11.0647 7.45804 11.0548 7.44012 11.0461C7.4191 11.0363 7.40241 11.0363 7.39005 11.0461C7.3652 11.0676 7.34723 11.0726 7.33614 11.061C7.34723 11.0726 7.36521 11.0677 7.39008 11.0462C7.40245 11.0363 7.41914 11.0363 7.44015 11.0462C7.45808 11.0548 7.47539 11.0647 7.49207 11.0759C7.5304 11.1024 7.56934 11.0984 7.6089 11.0638C7.63568 11.0402 7.65308 11.0337 7.66108 11.0442ZM7.30062 10.9481C7.28039 10.9242 7.24684 10.9176 7.19997 10.9284C7.16123 10.9375 7.12932 10.9277 7.10423 10.899C7.12933 10.9278 7.16125 10.9376 7.20001 10.9284C7.24685 10.9177 7.28038 10.9242 7.30062 10.9481Z" fill="black"/>
<path d="M16.9376 12.8447C16.9317 12.8611 16.9363 12.865 16.9513 12.8564L24.8278 8.30842C24.8291 8.30772 24.8306 8.30737 24.8321 8.30738C24.8336 8.3074 24.8351 8.30779 24.8364 8.30852C24.8377 8.30925 24.8388 8.31029 24.8395 8.31154C24.8403 8.3128 24.8407 8.31422 24.8407 8.31567L24.8411 15.5177C24.841 15.5256 24.839 15.5333 24.835 15.5401C24.8311 15.547 24.8254 15.5527 24.8185 15.5568L15.4777 20.9499C15.4567 20.9618 15.441 20.9569 15.4305 20.9354C15.1217 20.307 14.872 19.6535 14.6816 18.9751C14.6784 18.963 14.6821 18.9539 14.6929 18.9477L22.6938 14.3284C22.7086 14.3196 22.7159 14.3066 22.7159 14.2894L22.7171 12.0007C22.7171 11.9988 22.7166 11.997 22.7156 11.9954C22.7147 11.9938 22.7133 11.9925 22.7117 11.9915C22.7101 11.9906 22.7082 11.9901 22.7064 11.9901C22.7045 11.9901 22.7027 11.9905 22.701 11.9914L14.3178 16.8314C14.3079 16.8374 14.3025 16.8345 14.3017 16.823C14.1591 14.9203 14.4935 13.0058 15.2529 11.3287C16.9767 7.52163 20.642 4.96585 24.8169 4.69834C24.8327 4.69727 24.8407 4.70479 24.8407 4.7209L24.8402 6.80533C24.8402 6.82091 24.8326 6.82923 24.8173 6.83031C21.2269 7.11675 18.1688 9.48076 16.9376 12.8447Z" fill="black"/>
<path d="M28.3729 12.9942C28.3712 12.9958 28.3698 12.9978 28.3688 13C28.3678 13.0022 28.3673 13.0046 28.3673 13.0071L28.3677 16.7452C28.3677 16.7478 28.367 16.7503 28.3657 16.7525C28.3645 16.7547 28.3626 16.7565 28.3604 16.7578C28.3582 16.759 28.3557 16.7597 28.3532 16.7597C28.3506 16.7597 28.3482 16.759 28.346 16.7577L26.2631 15.5544C26.2492 15.5463 26.2422 15.5342 26.2422 15.5181V4.71004C26.2422 4.70813 26.2426 4.70625 26.2433 4.7045C26.2441 4.70276 26.2451 4.70119 26.2465 4.6999C26.2479 4.69861 26.2495 4.69763 26.2512 4.69702C26.253 4.6964 26.2548 4.69617 26.2567 4.69634C28.3554 4.83681 30.2588 5.49925 31.9669 6.68368C34.235 8.25647 35.8711 10.631 36.5088 13.3346C36.8529 14.794 36.9062 16.2683 36.6688 17.7572C36.6686 17.7586 36.6681 17.7599 36.6674 17.761C36.6666 17.7621 36.6655 17.7629 36.6643 17.7635C36.6631 17.7641 36.6618 17.7644 36.6605 17.7644C36.6591 17.7643 36.6578 17.764 36.6567 17.7633C33.9027 16.1714 31.1483 14.5805 28.3935 12.9905C28.3868 12.9868 28.3799 12.988 28.3729 12.9942ZM34.2471 13.1376C33.3403 10.3707 31.1676 8.15897 28.3883 7.25414C28.3858 7.25338 28.3833 7.2532 28.3808 7.25361C28.3783 7.25402 28.3759 7.25501 28.3739 7.2565C28.3719 7.25799 28.3702 7.25994 28.3691 7.26218C28.3679 7.26443 28.3673 7.26692 28.3673 7.26945L28.3681 10.4956C28.3681 10.5033 28.3701 10.5109 28.374 10.5176C28.3779 10.5243 28.3835 10.5299 28.3903 10.5339L34.488 14.0545C34.5079 14.0661 34.5144 14.061 34.5074 14.0392C34.4103 13.7423 34.345 13.4365 34.2471 13.1376Z" fill="black"/>
<path d="M31.623 22.731C31.6155 22.7194 31.6058 22.7101 31.594 22.7032C31.0064 22.3615 30.3825 22.001 29.7223 21.6215C29.7118 21.6156 29.7001 21.6125 29.6881 21.6125C29.6762 21.6125 29.6645 21.6156 29.6542 21.6215L21.3773 26.3999C21.368 26.4053 21.3574 26.4086 21.3466 26.4093C21.3357 26.41 21.3249 26.4081 21.3149 26.4039C19.1867 25.5224 17.4678 24.1211 16.1582 22.2C16.1483 22.1855 16.151 22.1738 16.1663 22.1649L17.978 21.1183C17.9908 21.1108 18.0016 21.1132 18.0102 21.1255C18.8304 22.3132 19.8885 23.267 21.1844 23.9871C21.2252 24.0097 21.2655 24.0094 21.3052 23.9863C23.3765 22.7909 25.4542 21.5911 27.5384 20.3871C27.5407 20.3857 27.5427 20.3838 27.544 20.3815C27.5454 20.3791 27.5461 20.3765 27.5461 20.3738C27.5461 20.3711 27.5454 20.3684 27.544 20.3661C27.5427 20.3638 27.5407 20.3618 27.5384 20.3605L23.4299 17.988C23.4284 17.9872 23.4272 17.986 23.4263 17.9845C23.4254 17.983 23.4249 17.9813 23.4249 17.9796C23.4249 17.9778 23.4254 17.9761 23.4263 17.9747C23.4272 17.9732 23.4284 17.9719 23.4299 17.9711L25.5281 16.7597C25.5372 16.7546 25.5462 16.7546 25.5551 16.7597L34.9193 22.1661C34.9216 22.1675 34.9237 22.1694 34.9253 22.1716C34.9269 22.1738 34.9281 22.1764 34.9287 22.1791C34.9293 22.1817 34.9293 22.1845 34.9288 22.1872C34.9283 22.1899 34.9272 22.1925 34.9257 22.1947C32.6902 25.4962 29.0116 27.378 25.0192 27.204C24.7461 27.1922 24.4993 27.1731 24.2788 27.1468C24.253 27.1438 24.2512 27.1359 24.2735 27.123C25.7255 26.2853 27.1896 25.44 28.666 24.587C28.8191 24.4983 28.9775 24.4192 29.1414 24.3497C30.0322 23.9713 30.8574 23.4465 31.617 22.7753C31.6315 22.7624 31.6335 22.7476 31.623 22.731Z" fill="black"/>
<path d="M70.3575 24.812C69.4375 24.812 68.5535 24.668 67.7055 24.38C66.8575 24.092 66.1175 23.68 65.4855 23.144C64.8535 22.6 64.4015 21.956 64.1295 21.212L66.4695 20.336C66.6055 20.72 66.8655 21.064 67.2495 21.368C67.6415 21.664 68.1055 21.896 68.6415 22.064C69.1855 22.232 69.7575 22.316 70.3575 22.316C70.9975 22.316 71.5975 22.212 72.1575 22.004C72.7255 21.796 73.1815 21.508 73.5255 21.14C73.8775 20.772 74.0535 20.34 74.0535 19.844C74.0535 19.332 73.8695 18.912 73.5015 18.584C73.1415 18.256 72.6775 17.996 72.1095 17.804C71.5495 17.612 70.9655 17.468 70.3575 17.372C69.1815 17.18 68.1255 16.9 67.1895 16.532C66.2615 16.164 65.5255 15.648 64.9815 14.984C64.4455 14.32 64.1775 13.456 64.1775 12.392C64.1775 11.392 64.4615 10.52 65.0295 9.776C65.6055 9.032 66.3615 8.456 67.2975 8.048C68.2415 7.632 69.2615 7.424 70.3575 7.424C71.2615 7.424 72.1335 7.568 72.9735 7.856C73.8215 8.136 74.5655 8.548 75.2055 9.092C75.8535 9.628 76.3175 10.28 76.5975 11.048L74.2335 11.9C74.0975 11.508 73.8375 11.168 73.4535 10.88C73.0695 10.584 72.6055 10.352 72.0615 10.184C71.5255 10.016 70.9575 9.932 70.3575 9.932C69.7175 9.924 69.1175 10.028 68.5575 10.244C68.0055 10.452 67.5535 10.74 67.2015 11.108C66.8495 11.476 66.6735 11.904 66.6735 12.392C66.6735 12.992 66.8375 13.448 67.1655 13.76C67.4935 14.072 67.9335 14.304 68.4855 14.456C69.0455 14.6 69.6695 14.732 70.3575 14.852C71.4615 15.028 72.4815 15.32 73.4175 15.728C74.3615 16.136 75.1175 16.68 75.6855 17.36C76.2615 18.032 76.5495 18.86 76.5495 19.844C76.5495 20.836 76.2615 21.708 75.6855 22.46C75.1175 23.204 74.3615 23.784 73.4175 24.2C72.4815 24.608 71.4615 24.812 70.3575 24.812ZM78.853 12.5H81.349V24.5H78.853V12.5ZM80.125 10.76C79.741 10.76 79.421 10.636 79.165 10.388C78.909 10.14 78.781 9.828 78.781 9.452C78.781 9.084 78.909 8.776 79.165 8.528C79.421 8.272 79.737 8.144 80.113 8.144C80.481 8.144 80.793 8.272 81.049 8.528C81.305 8.776 81.433 9.084 81.433 9.452C81.433 9.828 81.305 10.14 81.049 10.388C80.801 10.636 80.493 10.76 80.125 10.76ZM84.102 24.5V6.5H86.598V24.5H84.102ZM94.4202 24.812C93.3162 24.812 92.3082 24.528 91.3962 23.96C90.4922 23.392 89.7682 22.632 89.2242 21.68C88.6882 20.72 88.4202 19.66 88.4202 18.5C88.4202 17.62 88.5762 16.8 88.8882 16.04C89.2002 15.272 89.6282 14.6 90.1722 14.024C90.7242 13.44 91.3642 12.984 92.0922 12.656C92.8202 12.328 93.5962 12.164 94.4202 12.164C95.3402 12.164 96.1842 12.356 96.9522 12.74C97.7202 13.116 98.3762 13.64 98.9202 14.312C99.4642 14.976 99.8642 15.744 100.12 16.616C100.376 17.48 100.452 18.4 100.348 19.376H91.0962C91.2002 19.928 91.4002 20.428 91.6962 20.876C92.0002 21.316 92.3842 21.664 92.8482 21.92C93.3202 22.176 93.8442 22.308 94.4202 22.316C95.0282 22.316 95.5802 22.164 96.0762 21.86C96.5802 21.556 96.9922 21.136 97.3122 20.6L99.8442 21.188C99.3642 22.252 98.6402 23.124 97.6722 23.804C96.7042 24.476 95.6202 24.812 94.4202 24.812ZM91.0122 17.468H97.8282C97.7482 16.892 97.5442 16.372 97.2162 15.908C96.8962 15.436 96.4922 15.064 96.0042 14.792C95.5242 14.512 94.9962 14.372 94.4202 14.372C93.8522 14.372 93.3242 14.508 92.8362 14.78C92.3562 15.052 91.9562 15.424 91.6362 15.896C91.3242 16.36 91.1162 16.884 91.0122 17.468ZM112.97 16.976V24.5H110.474V17.588C110.474 17.052 110.342 16.564 110.078 16.124C109.822 15.684 109.474 15.336 109.034 15.08C108.602 14.816 108.114 14.684 107.57 14.684C107.042 14.684 106.558 14.816 106.118 15.08C105.678 15.336 105.326 15.684 105.062 16.124C104.798 16.564 104.666 17.052 104.666 17.588V24.5H102.17V12.5H104.666V13.772C105.082 13.276 105.594 12.884 106.202 12.596C106.81 12.308 107.466 12.164 108.17 12.164C109.058 12.164 109.866 12.38 110.594 12.812C111.322 13.244 111.898 13.824 112.322 14.552C112.754 15.28 112.97 16.088 112.97 16.976ZM121.537 14.996H119.017L119.005 24.5H116.509L116.521 14.996H114.613V12.5H116.521L116.509 8.732H119.005L119.017 12.5H121.537V14.996ZM123.52 24.5V7.7H133.948V10.196H126.016V14.252H132.4V16.748H126.016V22.004H133.948V24.5H123.52ZM144.02 12.5H146.684L140.108 30.5H137.456L139.628 24.5L135.32 12.5H138.044L140.876 21.08L144.02 12.5ZM153.173 24.812C152.069 24.812 151.061 24.528 150.149 23.96C149.245 23.392 148.521 22.632 147.977 21.68C147.441 20.72 147.173 19.66 147.173 18.5C147.173 17.62 147.329 16.8 147.641 16.04C147.953 15.272 148.381 14.6 148.925 14.024C149.477 13.44 150.117 12.984 150.845 12.656C151.573 12.328 152.349 12.164 153.173 12.164C154.093 12.164 154.937 12.356 155.705 12.74C156.473 13.116 157.129 13.64 157.673 14.312C158.217 14.976 158.617 15.744 158.873 16.616C159.129 17.48 159.205 18.4 159.101 19.376H149.849C149.953 19.928 150.153 20.428 150.449 20.876C150.753 21.316 151.137 21.664 151.601 21.92C152.073 22.176 152.597 22.308 153.173 22.316C153.781 22.316 154.333 22.164 154.829 21.86C155.333 21.556 155.745 21.136 156.065 20.6L158.597 21.188C158.117 22.252 157.393 23.124 156.425 23.804C155.457 24.476 154.373 24.812 153.173 24.812ZM149.765 17.468H156.581C156.501 16.892 156.297 16.372 155.969 15.908C155.649 15.436 155.245 15.064 154.757 14.792C154.277 14.512 153.749 14.372 153.173 14.372C152.605 14.372 152.077 14.508 151.589 14.78C151.109 15.052 150.709 15.424 150.389 15.896C150.077 16.36 149.869 16.884 149.765 17.468Z" fill="#101828"/>
</svg>
