<svg width="41" height="40" viewBox="0 0 41 40" fill="none" xmlns="http://www.w3.org/2000/svg">
<path d="M4 29.9997C4 27.4323 4 26.1485 4.57788 25.2055C4.90123 24.6778 5.34488 24.2342 5.87255 23.9108C6.81557 23.333 8.09927 23.333 10.6667 23.333C13.2341 23.333 14.5178 23.333 15.4608 23.9108C15.9884 24.2342 16.4321 24.6778 16.7554 25.2055C17.3333 26.1485 17.3333 27.4323 17.3333 29.9997C17.3333 32.567 17.3333 33.8508 16.7554 34.7938C16.4321 35.3215 15.9884 35.7652 15.4608 36.0885C14.5178 36.6663 13.2341 36.6663 10.6667 36.6663C8.09927 36.6663 6.81557 36.6663 5.87255 36.0885C5.34488 35.7652 4.90123 35.3215 4.57788 34.7938C4 33.8508 4 32.567 4 29.9997Z" stroke="#101828" stroke-width="2"/>
<path d="M30.6667 36.6663C34.3486 36.6663 37.3333 33.6816 37.3333 29.9997C37.3333 26.3178 34.3486 23.333 30.6667 23.333C26.9848 23.333 24 26.3178 24 29.9997C24 33.6816 26.9848 36.6663 30.6667 36.6663Z" stroke="#101828" stroke-width="2"/>
<path d="M4 9.99967C4 7.43227 4 6.14857 4.57788 5.20556C4.90123 4.67789 5.34488 4.23424 5.87255 3.91089C6.81557 3.33301 8.09927 3.33301 10.6667 3.33301C13.2341 3.33301 14.5178 3.33301 15.4608 3.91089C15.9884 4.23424 16.4321 4.67789 16.7554 5.20556C17.3333 6.14857 17.3333 7.43227 17.3333 9.99967C17.3333 12.5671 17.3333 13.8508 16.7554 14.7938C16.4321 15.3215 15.9884 15.7651 15.4608 16.0885C14.5178 16.6663 13.2341 16.6663 10.6667 16.6663C8.09927 16.6663 6.81557 16.6663 5.87255 16.0885C5.34488 15.7651 4.90123 15.3215 4.57788 14.7938C4 13.8508 4 12.5671 4 9.99967Z" stroke="#101828" stroke-width="2"/>
<path d="M24 9.99967C24 7.43227 24 6.14857 24.5778 5.20556C24.9012 4.67789 25.3448 4.23424 25.8725 3.91089C26.8155 3.33301 28.0993 3.33301 30.6667 3.33301C33.234 3.33301 34.5178 3.33301 35.4608 3.91089C35.9885 4.23424 36.4322 4.67789 36.7555 5.20556C37.3333 6.14857 37.3333 7.43227 37.3333 9.99967C37.3333 12.5671 37.3333 13.8508 36.7555 14.7938C36.4322 15.3215 35.9885 15.7651 35.4608 16.0885C34.5178 16.6663 33.234 16.6663 30.6667 16.6663C28.0993 16.6663 26.8155 16.6663 25.8725 16.0885C25.3448 15.7651 24.9012 15.3215 24.5778 14.7938C24 13.8508 24 12.5671 24 9.99967Z" stroke="#101828" stroke-width="2"/>
</svg>
