<svg width="41" height="40" viewBox="0 0 41 40" fill="none" xmlns="http://www.w3.org/2000/svg">
<path d="M11.1654 36.6667C14.387 36.6667 16.9987 34.055 16.9987 30.8333C16.9987 27.6117 14.387 25 11.1654 25C7.9437 25 5.33203 27.6117 5.33203 30.8333C5.33203 34.055 7.9437 36.6667 11.1654 36.6667Z" stroke="#101828" stroke-width="2"/>
<path d="M30.332 31.667C33.0935 31.667 35.332 29.4284 35.332 26.667C35.332 23.9056 33.0935 21.667 30.332 21.667C27.5706 21.667 25.332 23.9056 25.332 26.667C25.332 29.4284 27.5706 31.667 30.332 31.667Z" stroke="#101828" stroke-width="2"/>
<path d="M16.998 30.8334V11.6668C16.998 10.1277 16.998 9.35813 17.4372 8.87998C17.8762 8.40185 18.6939 8.33208 20.329 8.19257C27.0347 7.62045 31.8464 5.4335 34.2569 4.01638C34.7494 3.72675 34.9957 3.58195 35.1635 3.67795C35.3314 3.77395 35.3314 4.05258 35.3314 4.60987V26.6668" stroke="#101828" stroke-width="2" stroke-linecap="round" stroke-linejoin="round"/>
<path d="M16.998 16.667C26.7759 16.667 33.2944 12.7781 35.3314 11.667" stroke="#101828" stroke-width="2" stroke-linecap="round" stroke-linejoin="round"/>
</svg>
