<svg width="41" height="40" viewBox="0 0 41 40" fill="none" xmlns="http://www.w3.org/2000/svg">
<path d="M4 20C4 15.2859 4 12.9289 5.46447 11.4645C6.92893 10 9.28595 10 14 10H22.3333C27.0473 10 29.4043 10 30.8688 11.4645C32.3333 12.9289 32.3333 15.2859 32.3333 20C32.3333 24.714 32.3333 27.071 30.8688 28.5355C29.4043 30 27.0473 30 22.3333 30H14C9.28595 30 6.92893 30 5.46447 28.5355C4 27.071 4 24.714 4 20Z" stroke="#101828" stroke-width="2" stroke-linecap="round"/>
<path d="M32.332 15.833L34.044 16.1183C35.1795 16.3076 35.7472 16.4022 36.178 16.6775C36.6017 16.9482 36.934 17.3403 37.1314 17.8028C37.332 18.273 37.332 18.8485 37.332 19.9997C37.332 21.1508 37.332 21.7263 37.1314 22.1965C36.934 22.659 36.6017 23.0512 36.178 23.3218C35.7472 23.5972 35.1795 23.6918 34.044 23.881L32.332 24.1663" stroke="#101828" stroke-width="2" stroke-linecap="round"/>
<path d="M10.666 16.667V23.3337" stroke="#101828" stroke-width="2" stroke-linecap="round"/>
<path d="M15.666 16.667V23.3337" stroke="#101828" stroke-width="2" stroke-linecap="round"/>
<path d="M20.666 16.667V23.3337" stroke="#101828" stroke-width="2" stroke-linecap="round"/>
</svg>
