<svg width="40" height="40" viewBox="0 0 40 40" fill="none" xmlns="http://www.w3.org/2000/svg">
<path d="M11.6673 10.8337H27.9173C31.4285 10.8337 33.184 10.8337 34.4452 11.6763C34.9912 12.0411 35.4598 12.5099 35.8247 13.0558C36.5972 14.2119 36.6615 15.4333 36.6668 18.3337M20.0007 10.8337L18.945 8.72221C18.0703 6.97296 17.271 5.21219 15.3328 4.48534C14.4838 4.16699 13.514 4.16699 11.5744 4.16699C8.54698 4.16699 7.03325 4.16699 5.89742 4.80086C5.08777 5.25269 4.41968 5.92078 3.96785 6.73043C3.33398 7.86626 3.33398 9.37999 3.33398 12.4074V17.5003C3.33398 25.357 3.33398 29.2855 5.77477 31.7262C7.94165 33.8932 11.281 34.1363 17.5007 34.1635H18.334" stroke="#101828" stroke-width="2" stroke-linecap="round"/>
<path d="M29.26 35.833H30.7413C33.5348 35.833 34.9317 35.833 35.7995 34.9543C36.6673 34.0757 36.6673 32.6615 36.6673 29.833V29.3183C36.6673 28.092 36.6673 27.4788 36.4418 26.9277C36.2162 26.3763 35.788 25.9427 34.9317 25.0757L32.7487 22.8653C32.0545 22.1625 31.7075 21.8112 31.3085 21.5507C30.8593 21.2575 30.3615 21.0488 29.8391 20.9345C29.3751 20.833 28.8843 20.833 27.9027 20.833C26.4053 20.833 25.6567 20.833 25.0735 21.1007C24.4192 21.401 23.895 21.9318 23.5983 22.5943C23.334 23.1847 23.334 23.9428 23.334 25.4588V29.833C23.334 32.6615 23.334 34.0757 24.2018 34.9543C25.0697 35.833 26.4665 35.833 29.26 35.833Z" stroke="#101828" stroke-width="2" stroke-linejoin="round"/>
</svg>
