<svg width="40" height="40" viewBox="0 0 40 40" fill="none" xmlns="http://www.w3.org/2000/svg">
<path d="M25 4.16699V6.66699C25 9.02401 25 10.2025 25.7322 10.9348C26.4645 11.667 27.643 11.667 30 11.667H32.5" stroke="#101828" stroke-width="2" stroke-linecap="round" stroke-linejoin="round"/>
<path d="M6.66602 26.6663V13.333C6.66602 8.61896 6.66602 6.26194 8.13048 4.79747C9.59495 3.33301 11.952 3.33301 16.666 3.33301H23.6187C24.2998 3.33301 24.6405 3.33301 24.9468 3.45987C25.253 3.58674 25.494 3.82761 25.9757 4.30932L32.3563 10.69C32.838 11.1717 33.079 11.4126 33.2058 11.7189C33.3327 12.0252 33.3327 12.3658 33.3327 13.0471V26.6663C33.3327 31.3803 33.3327 33.7373 31.8682 35.2018C30.4037 36.6663 28.0467 36.6663 23.3327 36.6663H16.666C11.952 36.6663 9.59495 36.6663 8.13048 35.2018C6.66602 33.7373 6.66602 31.3803 6.66602 26.6663Z" stroke="#101828" stroke-width="2" stroke-linecap="round" stroke-linejoin="round"/>
<path d="M13.334 18.333H26.6673M13.334 23.333H26.6673M13.334 28.333H20.2853" stroke="#101828" stroke-width="2" stroke-linecap="round" stroke-linejoin="round"/>
</svg>
