<svg width="41" height="40" viewBox="0 0 41 40" fill="none" xmlns="http://www.w3.org/2000/svg">
<path d="M12.0016 10.8337H28.256C31.7682 10.8337 33.5242 10.8337 34.7857 11.6763C35.3319 12.0411 35.8007 12.5099 36.1655 13.0558C36.8222 14.0384 36.9674 15.3211 36.9994 17.5003M20.3372 10.8337L19.2812 8.72221C18.4063 6.97296 17.6068 5.21219 15.668 4.48534C14.8189 4.16699 13.8488 4.16699 11.9087 4.16699C8.88043 4.16699 7.3663 4.16699 6.23015 4.80086C5.42027 5.25269 4.75202 5.92078 4.30005 6.73043C3.66602 7.86626 3.66602 9.37999 3.66602 12.4074V17.5003C3.66602 25.357 3.66602 29.2855 6.10747 31.7262C8.5489 34.167 12.4783 34.167 20.3372 34.167H22.8379" stroke="#101828" stroke-width="2" stroke-linecap="round"/>
<path d="M26.998 24.1297C26.998 22.309 28.4904 20.833 30.3314 20.833C32.1724 20.833 33.6647 22.309 33.6647 24.1297C33.6647 24.786 33.4709 25.3975 33.1365 25.9112C32.1404 27.4423 30.3314 28.9023 30.3314 30.7232V31.5473M30.3314 35.833H30.3514" stroke="#101828" stroke-width="2" stroke-linecap="round" stroke-linejoin="round"/>
</svg>
