<svg width="41" height="40" viewBox="0 0 41 40" fill="none" xmlns="http://www.w3.org/2000/svg">
<path d="M26.5111 13.8839C28.0826 15.441 25.5684 28.1043 22.9884 28.3275C20.8242 28.5147 20.1497 24.246 19.6939 22.8932C19.2441 21.5578 18.7434 21.0772 17.4192 20.639C14.055 19.5262 12.3729 18.9697 12.0398 18.0885C11.158 15.7553 24.5041 11.8952 26.5111 13.8839Z" stroke="#101828" stroke-width="2"/>
<path d="M36.9994 19.9997C36.9994 29.2043 29.5374 36.6663 20.3327 36.6663C11.1279 36.6663 3.66602 29.2043 3.66602 19.9997C3.66602 10.7949 11.1279 3.33301 20.3327 3.33301C29.5374 3.33301 36.9994 10.7949 36.9994 19.9997Z" stroke="#101828" stroke-width="2"/>
</svg>
