<svg width="40" height="40" viewBox="0 0 40 40" fill="none" xmlns="http://www.w3.org/2000/svg">
<path d="M4.16602 20.0003C4.16602 12.5364 4.16602 8.80448 6.48475 6.48573C8.8035 4.16699 12.5354 4.16699 19.9993 4.16699C27.4632 4.16699 31.1952 4.16699 33.514 6.48573C35.8327 8.80448 35.8327 12.5364 35.8327 20.0003C35.8327 27.4642 35.8327 31.1962 33.514 33.515C31.1952 35.8337 27.4632 35.8337 19.9993 35.8337C12.5354 35.8337 8.8035 35.8337 6.48475 33.515C4.16602 31.1962 4.16602 27.4642 4.16602 20.0003Z" stroke="#101828" stroke-width="2"/>
<path d="M27.5 15C28.8807 15 30 13.8807 30 12.5C30 11.1193 28.8807 10 27.5 10C26.1193 10 25 11.1193 25 12.5C25 13.8807 26.1193 15 27.5 15Z" stroke="#101828" stroke-width="2"/>
<path d="M26.6667 36.6663C25.6342 32.9578 23.2242 29.6365 19.7942 27.2233C16.096 24.6211 11.4527 23.244 6.69282 23.3375C6.12763 23.3361 5.56293 23.3541 5 23.3915" stroke="#101828" stroke-width="2" stroke-linejoin="round"/>
<path d="M21.666 30.0003C24.5018 27.7891 27.5568 26.6549 30.643 26.6671C32.393 26.6653 34.1347 27.0363 35.8327 27.7698" stroke="#101828" stroke-width="2" stroke-linejoin="round"/>
</svg>
