<svg width="41" height="40" viewBox="0 0 41 40" fill="none" xmlns="http://www.w3.org/2000/svg">
<path d="M19 13.333H22.3333" stroke="#101828" stroke-width="2" stroke-linecap="round"/>
<path d="M4 18.3337C4 12.8339 4 10.0841 5.70855 8.37554C7.41708 6.66699 10.1669 6.66699 15.6667 6.66699H17.3333C22.833 6.66699 25.5828 6.66699 27.2915 8.37554C29 10.0841 29 12.8339 29 18.3337V21.667C29 27.1667 29 29.9165 27.2915 31.6252C25.5828 33.3337 22.833 33.3337 17.3333 33.3337H15.6667C10.1669 33.3337 7.41708 33.3337 5.70855 31.6252C4 29.9165 4 27.1667 4 21.667V18.3337Z" stroke="#101828" stroke-width="2"/>
<path d="M29 14.8428L29.2098 14.6696C32.7362 11.7601 34.4993 10.3053 35.9163 11.0077C37.3333 11.7101 37.3333 14.0389 37.3333 18.6965V21.3028C37.3333 25.9605 37.3333 28.2892 35.9163 28.9917C34.4993 29.694 32.7362 28.2393 29.2098 25.3297L29 25.1565" stroke="#101828" stroke-width="2" stroke-linecap="round"/>
</svg>
